<?xml version="1.0" encoding="utf-8"?>
<!-- Generator: Adobe Illustrator 16.0.0, SVG Export Plug-In . SVG Version: 6.00 Build 0)  -->
<!DOCTYPE svg PUBLIC "-//W3C//DTD SVG 1.1//EN" "http://www.w3.org/Graphics/SVG/1.1/DTD/svg11.dtd">
<svg version="1.1" id="Layer_1" xmlns="http://www.w3.org/2000/svg" xmlns:xlink="http://www.w3.org/1999/xlink" x="0px" y="0px"
	 width="821.16px" height="690.775px" viewBox="0 0 821.16 690.775" enable-background="new 0 0 821.16 690.775"
	 xml:space="preserve">
<g>
	<defs>
		<rect id="SVGID_1_" x="-102.42" y="-170.162" width="1024" height="1024"/>
	</defs>
	<clipPath id="SVGID_2_">
		<use xlink:href="#SVGID_1_"  overflow="visible"/>
	</clipPath>
	<rect x="-102.42" y="-170.162" clip-path="url(#SVGID_2_)" fill="#FFFFFF" width="1024" height="1024"/>
	<g display="none" clip-path="url(#SVGID_2_)">
		<defs>
			<rect id="SVGID_3_" x="-102.42" y="-170.162" width="1024" height="1024"/>
		</defs>
		<clipPath id="SVGID_4_" display="inline">
			<use xlink:href="#SVGID_3_"  overflow="visible"/>
		</clipPath>
		<g display="inline" opacity="0.5" clip-path="url(#SVGID_4_)">
			<g>
				<defs>
					<rect id="SVGID_5_" x="-103.127" y="-170.872" width="1025.417" height="1025.417"/>
				</defs>
				<clipPath id="SVGID_6_">
					<use xlink:href="#SVGID_5_"  overflow="visible"/>
				</clipPath>
				
					<line clip-path="url(#SVGID_6_)" fill="none" stroke="#FFFFFF" stroke-linecap="square" stroke-miterlimit="10" x1="921.58" y1="-170.162" x2="-102.42" y2="853.838"/>
				
					<line clip-path="url(#SVGID_6_)" fill="none" stroke="#FFFFFF" stroke-linecap="square" stroke-miterlimit="10" x1="-102.42" y1="-170.162" x2="921.58" y2="853.838"/>
				
					<line clip-path="url(#SVGID_6_)" fill="none" stroke="#FFFFFF" stroke-linecap="square" stroke-miterlimit="10" x1="855.58" y1="-170.162" x2="855.58" y2="853.838"/>
				
					<line clip-path="url(#SVGID_6_)" fill="none" stroke="#FFFFFF" stroke-linecap="square" stroke-miterlimit="10" x1="603.58" y1="-170.162" x2="603.58" y2="853.838"/>
				
					<line clip-path="url(#SVGID_6_)" fill="none" stroke="#FFFFFF" stroke-linecap="square" stroke-miterlimit="10" x1="409.58" y1="-170.162" x2="409.58" y2="853.838"/>
				
					<line clip-path="url(#SVGID_6_)" fill="none" stroke="#FFFFFF" stroke-linecap="square" stroke-miterlimit="10" x1="215.58" y1="-170.162" x2="215.58" y2="853.838"/>
				
					<line clip-path="url(#SVGID_6_)" fill="none" stroke="#FFFFFF" stroke-linecap="square" stroke-miterlimit="10" x1="-36.42" y1="-170.162" x2="-36.42" y2="853.838"/>
				
					<line clip-path="url(#SVGID_6_)" fill="none" stroke="#FFFFFF" stroke-linecap="square" stroke-miterlimit="10" x1="-102.42" y1="-104.162" x2="921.58" y2="-104.162"/>
				
					<line clip-path="url(#SVGID_6_)" fill="none" stroke="#FFFFFF" stroke-linecap="square" stroke-miterlimit="10" x1="-102.42" y1="147.838" x2="921.58" y2="147.838"/>
				
					<line clip-path="url(#SVGID_6_)" fill="none" stroke="#FFFFFF" stroke-linecap="square" stroke-miterlimit="10" x1="-102.42" y1="341.838" x2="921.58" y2="341.838"/>
				
					<line clip-path="url(#SVGID_6_)" fill="none" stroke="#FFFFFF" stroke-linecap="square" stroke-miterlimit="10" x1="-102.42" y1="535.838" x2="921.58" y2="535.838"/>
				
					<line clip-path="url(#SVGID_6_)" fill="none" stroke="#FFFFFF" stroke-linecap="square" stroke-miterlimit="10" x1="-102.42" y1="787.838" x2="921.58" y2="787.838"/>
				<circle clip-path="url(#SVGID_6_)" fill="none" stroke="#FFFFFF" stroke-miterlimit="10" cx="409.58" cy="341.838" r="194"/>
				<circle clip-path="url(#SVGID_6_)" fill="none" stroke="#FFFFFF" stroke-miterlimit="10" cx="409.58" cy="341.838" r="274"/>
				<circle clip-path="url(#SVGID_6_)" fill="none" stroke="#FFFFFF" stroke-miterlimit="10" cx="409.58" cy="341.838" r="446"/>
			</g>
		</g>
		<g display="inline" opacity="0.5" clip-path="url(#SVGID_4_)">
			<g>
				<defs>
					<rect id="SVGID_7_" x="-102.92" y="-170.662" width="1025" height="1025"/>
				</defs>
				<clipPath id="SVGID_8_">
					<use xlink:href="#SVGID_7_"  overflow="visible"/>
				</clipPath>
				<path clip-path="url(#SVGID_8_)" fill="none" stroke="#FFFFFF" stroke-linecap="square" stroke-miterlimit="10" d="
					M696.56,853.838H122.599c-124.275,0-225.019-100.745-225.019-225.02V54.858c0-124.275,100.744-225.02,225.019-225.02H696.56
					c124.274,0,225.02,100.745,225.02,225.02v573.96C921.58,753.093,820.834,853.838,696.56,853.838z"/>
			</g>
		</g>
	</g>
	<g clip-path="url(#SVGID_2_)">
		<defs>
			<rect id="SVGID_9_" x="-102.42" y="-170.162" width="1024" height="1024"/>
		</defs>
		<clipPath id="SVGID_10_">
			<use xlink:href="#SVGID_9_"  overflow="visible"/>
		</clipPath>
		<path clip-path="url(#SVGID_10_)" fill="#232323" d="M-102.42,628.818v225.021H122.6
			C-1.675,853.839-102.42,753.093-102.42,628.818"/>
		<path clip-path="url(#SVGID_10_)" fill="#232323" d="M122.599-170.162h-225.02v225.02
			C-102.421-69.417-1.676-170.162,122.599-170.162"/>
		<path clip-path="url(#SVGID_10_)" fill="#232323" d="M696.56-170.162c124.274,0,225.02,100.745,225.02,225.02v-225.02H696.56z"/>
		<path clip-path="url(#SVGID_10_)" fill="#232323" d="M696.56,853.838h225.02v-225.02
			C921.58,753.093,820.834,853.838,696.56,853.838"/>
	</g>
</g>
<g>
	<path id="Fill-4" fill="#00979D" d="M449.072,193.64c16.877-32.033,66.906-111.904,148.49-123.525
		c7.141-0.966,14.373-1.543,21.326-1.543c73.451,0,133.117,56.15,133.117,125.069c0,68.964-59.666,125.143-132.988,125.143
		c-7.045,0-14.314-0.592-21.455-1.62C515.941,305.637,465.949,225.685,449.072,193.64 M223.666,317.163
		c-7.195,1.028-14.314,1.62-21.395,1.62c-73.42,0-133.118-56.179-133.118-125.143c0-68.919,59.698-125.069,133.169-125.069
		c7.051,0,14.194,0.577,21.343,1.543c81.697,11.621,131.65,91.54,148.603,123.525C355.277,225.715,305.295,305.637,223.666,317.163
		 M821.16,193.64C821.16,86.91,730.476,0,618.888,0c-10.244,0-20.768,0.726-31.041,2.18
		c-86.727,12.255-144.729,74.138-177.246,121.62C378.095,76.318,320.053,14.435,233.424,2.18C223.068,0.726,212.636,0,202.323,0
		C90.767,0,0,86.91,0,193.64c0,106.79,90.767,193.7,202.271,193.7c10.282,0,20.797-0.788,31.153-2.18
		c86.629-12.347,144.67-74.2,177.177-121.768c32.518,47.568,90.52,109.421,177.246,121.768c10.273,1.392,20.797,2.18,31.17,2.18
		C730.476,387.34,821.16,300.43,821.16,193.64"/>
	<polygon id="Fill-8" fill="#00979D" points="639.767,221.358 681.716,221.358 681.716,181.475 639.767,181.475 639.767,139.441 
		599.792,139.441 599.792,181.475 557.769,181.475 557.769,221.358 599.792,221.358 599.792,263.392 639.767,263.392 	"/>
	<polygon id="Fill-8-Copy-2" fill="#00979D" points="236.935,216.91 278.883,216.91 278.883,170.43 154.936,170.43 154.936,216.91 	
		"/>
</g>
<g>
	<rect x="0.333" y="429.603" fill="#00979D" width="820.827" height="261.173"/>
	<path id="Combined-Shape" fill="#FFFFFF" d="M170.169,609.396l4.509,14.374c-10.456,5.739-23.392,8.407-37.956,8.407
		c-37.143,0-61.769-19.702-61.769-67.716c0-44.734,25.855-69.564,63.818-69.564c13.544,0,26.47,3.278,34.268,7.997l-5.739,16.014
		c-7.597-6.158-18.473-9.646-28.939-9.646c-30.369,0-45.758,19.902-45.758,54.789c0,36.117,15.185,53.762,45.348,53.762
		C151.496,617.812,164.012,613.504,170.169,609.396z M214.776,496.745h16.615v118.808h57.459v14.575h-74.074V496.745z
		 M377.79,494.896c38.987,0,60.53,25.03,60.53,68.745c0,39.815-24.002,68.535-61.56,68.535c-39.395,0-60.127-26.061-60.127-68.126
		C316.633,523.826,339.405,494.896,377.79,494.896z M376.76,617.812c29.55,0,43.707-21.543,43.707-54.171
		c0-34.678-12.726-54.38-42.677-54.38c-30.168,0-43.504,19.902-43.504,54.789C334.286,597.299,345.982,617.812,376.76,617.812z
		 M567.675,578.626v-81.881h16.414v83.521c0,30.778-15.176,51.911-52.32,51.911c-37.348,0-51.721-18.055-51.721-50.272v-85.159
		h16.633v83.31c0,28.939,11.074,37.967,35.496,37.967C557,618.021,567.675,606.735,567.675,578.626z M633.423,630.128V496.745
		h46.365c46.793,0,61.566,30.979,61.566,65.247c0,38.176-12.305,68.136-62.787,68.136H633.423z M679.587,511.31h-29.549v104.243
		h30.369c36.945,0,43.094-22.771,43.094-51.502C723.501,536.961,714.474,511.31,679.587,511.31z"/>
</g>
</svg>
