<?xml version="1.0" encoding="UTF-8" standalone="no"?>
<svg width="149px" height="28px" viewBox="0 0 149 28" version="1.1" xmlns="http://www.w3.org/2000/svg" xmlns:xlink="http://www.w3.org/1999/xlink">
    <!-- Generator: Sketch 49 (51002) - http://www.bohemiancoding.com/sketch -->
    <title>Group</title>
    <desc>Created with Sketch.</desc>
    <defs></defs>
    <g id="Symbols" stroke="none" stroke-width="1" fill="none" fill-rule="evenodd">
        <g id="Header/Create-Cloud" transform="translate(-568.000000, -14.000000)" fill="#00979D">
            <g id="Group" transform="translate(568.000000, 14.000000)">
                <path d="M61,0 L149,0 L149,28 L61,28 L61,0 Z M79.208,19.276 L79.692,20.816 C78.57,21.432 77.184,21.718 75.622,21.718 C71.64,21.718 69,19.606 69,14.458 C69,9.662 71.772,7 75.842,7 C77.294,7 78.68,7.352 79.516,7.858 L78.9,9.574 C78.086,8.914 76.92,8.54 75.798,8.54 C72.542,8.54 70.892,10.674 70.892,14.414 C70.892,18.286 72.52,20.178 75.754,20.178 C77.206,20.178 78.548,19.716 79.208,19.276 Z M83.9901054,7.198 L85.7721054,7.198 L85.7721054,19.936 L91.9321054,19.936 L91.9321054,21.498 L83.9901054,21.498 L83.9901054,7.198 Z M101.466211,7 C105.646211,7 107.956211,9.684 107.956211,14.37 C107.956211,18.638 105.382211,21.718 101.356211,21.718 C97.1322107,21.718 94.9102107,18.924 94.9102107,14.414 C94.9102107,10.102 97.3522107,7 101.466211,7 Z M101.356211,20.178 C104.524211,20.178 106.042211,17.868 106.042211,14.37 C106.042211,10.652 104.678211,8.54 101.466211,8.54 C98.2322107,8.54 96.8022107,10.674 96.8022107,14.414 C96.8022107,17.978 98.0562107,20.178 101.356211,20.178 Z M121.824316,15.976 L121.824316,7.198 L123.584316,7.198 L123.584316,16.152 C123.584316,19.452 121.956316,21.718 117.974316,21.718 C113.970316,21.718 112.430316,19.782 112.430316,16.328 L112.430316,7.198 L114.212316,7.198 L114.212316,16.13 C114.212316,19.232 115.400316,20.2 118.018316,20.2 C120.680316,20.2 121.824316,18.99 121.824316,15.976 Z M128.872421,21.498 L128.872421,7.198 L133.844421,7.198 C138.860421,7.198 140.444421,10.52 140.444421,14.194 C140.444421,18.286 139.124421,21.498 133.712421,21.498 L128.872421,21.498 Z M133.822421,8.76 L130.654421,8.76 L130.654421,19.936 L133.910421,19.936 C137.870421,19.936 138.530421,17.494 138.530421,14.414 C138.530421,11.51 137.562421,8.76 133.822421,8.76 Z" id="Combined-Shape"></path>
                <path d="M28.9844172,14.4986605 C30.0739081,12.430434 33.3027957,7.27504912 38.5685186,6.52580818 C39.0291457,6.462404 39.4960703,6.42579032 39.9450018,6.42579032 C44.6853219,6.42579032 48.5367758,10.0496517 48.5367758,14.4986605 C48.5367758,18.9494553 44.6853219,22.5751027 39.9530987,22.5751027 C39.4987693,22.5751027 39.0291457,22.536703 38.5685186,22.4706198 C33.3000968,21.7267369 30.0739081,16.5668869 28.9844172,14.4986605 M14.4359797,22.4706198 C13.971754,22.536703 13.5120266,22.5751027 13.0549982,22.5751027 C8.3164774,22.5751027 4.46322419,18.9494553 4.46322419,14.4986605 C4.46322419,10.0496517 8.3164774,6.42579032 13.0585969,6.42579032 C13.5138259,6.42579032 13.974453,6.462404 14.4359797,6.52580818 C19.7088999,7.27504912 22.9332892,12.4340061 24.0272784,14.4986605 C22.9305902,16.568673 19.7044016,21.7267369 14.4359797,22.4706198 M53,14.4986605 C53,7.60993034 47.1467977,2 39.9450018,2 C39.2837501,2 38.6045051,2.04732988 37.9414541,2.14020361 C32.3437558,2.93141632 28.6002614,6.92587962 26.5013495,9.98981961 C24.4033372,6.92587962 20.6571438,2.93141632 15.0657432,2.14020361 C14.3972942,2.04732988 13.7243469,2 13.0585969,2 C5.85860026,2 0,7.60993034 0,14.4986605 C0,21.3909627 5.85860026,27 13.0549982,27 C13.7189489,27 14.3972942,26.9490981 15.0657432,26.8589034 C20.6571438,26.0623326 24.4033372,22.0696553 26.5013495,18.9994642 C28.6002614,22.0696553 32.3437558,26.0623326 37.9414541,26.8589034 C38.6045051,26.9490981 39.2837501,27 39.9530987,27 C47.1467977,27 53,21.3909627 53,14.4986605" id="Fill-4"></path>
                <polygon id="Fill-8" points="41.2923359 16.2865336 44 16.2865336 44 13.7134664 41.2923359 13.7134664 41.2923359 11 38.7122533 11 38.7122533 13.7134664 36 13.7134664 36 16.2865336 38.7122533 16.2865336 38.7122533 19 41.2923359 19"></polygon>
                <polygon id="Fill-8-Copy-2" points="15.2923359 16 18 16 18 13 10 13 10 16"></polygon>
            </g>
        </g>
    </g>
</svg>