<?xml version="1.0" encoding="utf-8"?>
<!-- Generator: Adobe Illustrator 16.0.0, SVG Export Plug-In . SVG Version: 6.00 Build 0)  -->
<!DOCTYPE svg PUBLIC "-//W3C//DTD SVG 1.1//EN" "http://www.w3.org/Graphics/SVG/1.1/DTD/svg11.dtd">
<svg version="1.1" id="Layer_1" xmlns="http://www.w3.org/2000/svg" xmlns:xlink="http://www.w3.org/1999/xlink" x="0px" y="0px"
	 width="43.5px" height="105px" viewBox="211.25 462.75 43.5 105" enable-background="new 211.25 462.75 43.5 105"
	 xml:space="preserve">
<g>
	<path fill="none" d="M238.553,533.888v-58.38c0-3.011-2.464-5.475-5.475-5.475s-5.475,2.464-5.475,5.475v58.38
		c-5.063,2.138-8.617,7.146-8.617,12.987c0,7.783,6.309,14.092,14.091,14.092s14.091-6.309,14.091-14.092
		C247.169,541.035,243.616,536.025,238.553,533.888z"/>
	<path fill="none" d="M233.007,565.524c-10.407,0-18.874-8.468-18.874-18.874c0-5.978,2.879-11.665,7.7-15.213l0.24-0.174
		c0.744-0.529,1.102-1.389,1.035-2.237c0.004-0.06,0.018-0.117,0.018-0.179v-53.442c0-5.448,4.432-9.881,9.88-9.881
		c5.449,0,9.881,4.433,9.881,9.881v53.502c0,0.057,0.012,0.108,0.016,0.163c-0.051,0.833,0.308,1.673,1.038,2.194
		c0.158,0.113,0.315,0.229,0.475,0.35c4.744,3.606,7.464,9.087,7.464,15.037C251.879,557.058,243.414,565.524,233.007,565.524z"/>
</g>
</svg>
