<?xml version="1.0" encoding="utf-8"?>
<!-- Generator: Adobe Illustrator 16.0.0, SVG Export Plug-In . SVG Version: 6.00 Build 0)  -->
<!DOCTYPE svg PUBLIC "-//W3C//DTD SVG 1.1//EN" "http://www.w3.org/Graphics/SVG/1.1/DTD/svg11.dtd">
<svg version="1.1"
	 id="Layer_1" xmlns:dc="http://purl.org/dc/elements/1.1/" xmlns:cc="http://creativecommons.org/ns#" xmlns:rdf="http://www.w3.org/1999/02/22-rdf-syntax-ns#" xmlns:svg="http://www.w3.org/2000/svg"
	 xmlns="http://www.w3.org/2000/svg" xmlns:xlink="http://www.w3.org/1999/xlink" x="0px" y="0px" width="73.5px"
	 height="105.875px" viewBox="109 522.75 73.5 105.875" enable-background="new 109 522.75 73.5 105.875" xml:space="preserve">
<path fill="none" d="M146.058,525.502c-7.574,0-15.149,2.735-21.116,8.203c-11.698,10.719-13.46,28.506-4.245,41.3
	c4.289,5.524,6.609,12.287,6.609,19.244c0,1.656,0.66,3.247,1.831,4.419c1.172,1.172,2.762,1.831,4.419,1.831h25.002
	c1.657,0,3.248-0.659,4.419-1.831c1.171-1.172,1.831-2.763,1.831-4.419c0-6.957,2.295-13.736,6.584-19.261
	c9.215-12.793,7.478-30.564-4.22-41.283C161.207,528.237,153.631,525.502,146.058,525.502z M133.557,604.666
	c-1.151-0.016-2.097,0.903-2.113,2.055c-0.017,1.15,0.903,2.097,2.054,2.112c0.02,0.001,0.04,0.001,0.059,0h25.002
	c1.151,0.017,2.097-0.903,2.113-2.054s-0.903-2.097-2.054-2.113c-0.02,0-0.04,0-0.059,0H133.557z M133.557,613
	c-1.151-0.016-2.097,0.903-2.113,2.055c-0.017,1.15,0.903,2.097,2.054,2.112c0.02,0.001,0.04,0.001,0.059,0h25.002
	c1.151,0.017,2.097-0.903,2.113-2.054s-0.903-2.097-2.054-2.113c-0.02,0-0.04,0-0.059,0H133.557z M139.808,621.334
	c-1.151-0.016-2.097,0.903-2.113,2.055c-0.017,1.15,0.903,2.097,2.054,2.112c0.02,0.001,0.04,0.001,0.059,0h12.501
	c1.151,0.017,2.097-0.903,2.113-2.054s-0.903-2.097-2.054-2.113c-0.02,0-0.039,0-0.059,0H139.808z"/>
</svg>
