<svg id="Layer_1" data-name="Layer 1" xmlns="http://www.w3.org/2000/svg" width="1538.929" height="1542.623" viewBox="0 0 1538.929 1542.623">
  <title>tangram_appLogo</title>
  <rect x="-0.979" width="1542.623" height="1542.623" rx="360.899" ry="360.899" fill="#fff"/>
  <g>
    <rect x="390.526" y="423.961" width="173.947" height="56.053" fill="#008184"/>
    <polygon points="1086.22 480.015 1145.005 480.015 1145.005 423.961 1086.22 423.961 1086.22 364.976 1030.005 364.976 1030.005 423.961 971.144 423.961 971.144 480.015 1030.005 480.015 1030.005 539.009 1086.22 539.009 1086.22 480.015" fill="#008184"/>
    <g>
      <path d="M1355.836,188.821a30.55,30.55,0,0,0-6.634-9.861,31.809,31.809,0,0,0-9.68-6.625,29.893,29.893,0,0,0-12.06-2.456,29.552,29.552,0,0,0-12.05,2.456,31.255,31.255,0,0,0-16.362,16.486,31.556,31.556,0,0,0,16.362,41.357,29.271,29.271,0,0,0,12.05,2.446,29.57,29.57,0,0,0,12.06-2.446,31.067,31.067,0,0,0,9.68-6.653,30.206,30.206,0,0,0,6.634-9.966,31.786,31.786,0,0,0,2.446-12.3A31.328,31.328,0,0,0,1355.836,188.821Zm-6.787,21.94a23.579,23.579,0,0,1-5.1,7.672,26.026,26.026,0,0,1-7.472,5.264,20.919,20.919,0,0,1-9,1.951,21.725,21.725,0,0,1-9.157-1.951,23.99,23.99,0,0,1-7.472-5.264,25.039,25.039,0,0,1-4.978-7.672,24.717,24.717,0,0,1-1.809-9.5,25.621,25.621,0,0,1,1.809-9.642,24.968,24.968,0,0,1,4.978-7.8,22.547,22.547,0,0,1,7.472-5.121,22.946,22.946,0,0,1,9.157-1.847,22.056,22.056,0,0,1,9,1.847,24.5,24.5,0,0,1,7.472,5.121,23.233,23.233,0,0,1,5.1,7.8,25.656,25.656,0,0,1,1.808,9.642A24.861,24.861,0,0,1,1349.05,210.76Z" fill="#008184"/>
      <path d="M1334.182,204.3a9.8,9.8,0,0,0,4.055-3.636,10.052,10.052,0,0,0,1.409-5.187,10.66,10.66,0,0,0-3.132-7.653c-2.046-2.151-5.587-3.255-10.6-3.255-1.885,0-3.579.038-5.064,0.143s-2.894.219-4.255,0.4v30.839h7.757V205.839h3.132l5.425,10.108h8.843Zm-7.757-4.179a7.545,7.545,0,0,1-2.332-.238v-8.3a9.241,9.241,0,0,1,2.57-.257c3.293,0,4.94,1.447,4.94,4.4S1329.88,200.119,1326.425,200.119Z" fill="#008184"/>
    </g>
    <g>
      <path d="M1356.6,451.269c0-154.054-129.944-279.382-289.662-279.382a312.714,312.714,0,0,0-44.565,3.151C898.252,192.742,815.2,282.024,768.708,350.489,722.059,282.024,639,192.742,514.921,175.038a311.719,311.719,0,0,0-44.565-3.151c-159.8,0-289.709,125.328-289.709,279.382,0,154.073,129.906,279.325,289.585,279.325a314.584,314.584,0,0,0,44.679-3.055C638.992,709.74,722.049,620.42,768.7,551.888c46.488,68.532,129.544,157.852,253.663,175.651a314.3,314.3,0,0,0,44.679,3.055c159.7-.01,289.557-125.252,289.557-279.325M500.862,629.433a214.769,214.769,0,0,1-30.62,2.227c-105.035,0-190.538-81-190.538-180.391,0-99.447,85.5-180.458,190.662-180.458a228.132,228.132,0,0,1,30.535,2.208c116.923,16.7,188.53,132.019,212.8,178.183-24.31,46.3-95.869,161.555-212.839,178.231M823.638,451.269c24.272-46.23,95.831-161.545,212.763-178.24a226.669,226.669,0,0,1,30.535-2.208c105.111,0,190.623,81,190.623,180.458,0,99.39-85.5,180.391-190.5,180.391a216.538,216.538,0,0,1-30.659-2.227C919.469,612.757,847.824,497.4,823.638,451.269" fill="#008184"/>
      <path d="M262.952,813.68l-50.79,161.812h40.986l8.281-33.114h46.526l8.957,33.114h42.547L307.945,813.68H262.952Zm6.139,97.62L283.8,852.029,299.75,911.3H269.091Z" fill="#008184"/>
      <path d="M511.989,867.725c0-31.1-16.876-54.045-61.679-54.045H385.1V975.491h40.063V924.216h20.169l24.31,51.275h47.335L485.4,916.239c17.637-9.461,26.594-26.29,26.594-48.515M446.379,892.1H425.163V846.432H445.58c18.684,0,23.786,7.177,23.786,21.521-0.009,17.98-9.128,24.148-22.987,24.148" fill="#008184"/>
      <path d="M597.378,813.68h-53V975.491h53.236c68.665,0,80.325-44.117,80.325-82.372,0-50.809-20.093-79.44-80.563-79.44m2.208,128.707H584.433V846.413h11.688c35.8,0,39.054,16.857,39.054,48.477,0.01,27.346-2.437,47.5-35.589,47.5" fill="#008184"/>
      <path d="M796.511,912.508c0,24.652-6.748,32.81-24.957,32.81-15.144,0-24.672-6.187-24.672-33.029v-98.6H706.858V919.771c0,48.981,35.361,58.224,63,58.224,28.612,0,65.172-10.166,65.172-57.986V813.689H796.5v98.819h0.01Z" fill="#008184"/>
      <polygon points="870.849 846.794 912.682 846.794 912.682 942.386 870.849 942.386 870.849 975.491 994.844 975.491 994.844 942.386 952.735 942.386 952.735 846.794 994.844 846.794 994.844 813.68 870.849 813.68 870.849 846.794" fill="#008184"/>
      <polygon points="1123.989 910.823 1071.552 813.68 1027.873 813.68 1027.873 975.491 1065.813 975.491 1065.527 871.951 1120.781 975.491 1161.32 975.491 1161.32 813.68 1123.989 813.68 1123.989 910.823" fill="#008184"/>
      <path d="M1255.7,811.576c-49.057,0-67.7,36-67.7,84.8,0,53.522,21.416,81.61,67.9,81.61,52.037,0,69.151-36.541,69.151-83.352,0-61.764-23.3-83.057-69.351-83.057m0.2,133.742c-23.1,0-25.395-16.353-25.395-48.943,0-39.539,3.779-52.275,25.2-52.275,23.625,0,26.842,11.013,26.842,50.533,0,37.3-3.217,50.685-26.642,50.685" fill="#008184"/>
      <g>
        <path d="M1157.092,1150.761h-49.581v163.494h49.581c58.43,0,67.288-37.19,67.288-81.751C1224.38,1192.961,1210.214,1150.761,1157.092,1150.761Z" fill="#008184"/>
        <path d="M762.007,1147.805c-48.4,0-64.927,30.991-64.927,84.7,0,52.537,13.878,85,62.864,85,46.922,0,64.927-36.883,64.927-84.7C824.871,1181.454,809.822,1147.805,762.007,1147.805Z" fill="#008184"/>
        <path d="M211.08,1068.4v342.38H1330.653V1068.4H211.08Zm169.414,262.97c-51.059,0-89.42-25.971-89.42-97.089,0-64.927,37.181-100.342,90.9-100.342,19.176,0,40.137,4.722,48.7,9.741l-5.317,15.932c-9.146-7.38-28.332-11.805-43.093-11.805-50.752,0-75.254,32.171-75.254,85.879,0,56.664,25.385,83.815,74.083,83.815,19.771,0,41.605-5.308,48.391-9.741l4.136,13.58C421.225,1327.836,400.859,1331.368,380.494,1331.368Zm247.569-2.947H504.409V1136.6h15.049v177.66H628.063v14.166Zm131.881,2.947c-56.961,0-78.8-39.245-78.8-98.864,0-59.908,26.854-98.566,80.859-98.566,56.664,0,78.805,38.073,78.805,98.864C840.813,1290.348,811,1331.368,759.944,1331.368Zm268.223-76.723c0,39.542-7.083,76.723-68.18,76.723-60.206,0-67.874-31.576-67.874-73.479V1136.6h15.049v121c0,45.156,13.869,60.5,53.123,60.5,40.434,0,52.825-18.888,52.825-63.45V1136.6h15.058v118.049Zm126.267,73.776h-61.971V1136.6h64.333c65.81,0,83.527,48.391,83.527,94.728C1240.322,1285.626,1223.5,1328.421,1154.434,1328.421Z" fill="#008184"/>
      </g>
    </g>
  </g>
</svg>
