<?xml version="1.0" encoding="utf-8"?>
<!-- Generator: Adobe Illustrator 16.0.0, SVG Export Plug-In . SVG Version: 6.00 Build 0)  -->
<!DOCTYPE svg PUBLIC "-//W3C//DTD SVG 1.1//EN" "http://www.w3.org/Graphics/SVG/1.1/DTD/svg11.dtd">
<svg version="1.1" id="Layer_1" xmlns="http://www.w3.org/2000/svg" xmlns:xlink="http://www.w3.org/1999/xlink" x="0px" y="0px"
	 width="60.25px" height="101.25px" viewBox="0 0 60.25 101.25" enable-background="new 0 0 60.25 101.25" xml:space="preserve">
<g id="CONTENT">
	<g>
		<g>
			<path fill="none" d="M30.458,98.332c-9.154,0-17.661-4.78-22.757-12.785c-5.573-8.754-6.085-19.52-1.406-29.536
				c3.411-7.307,6.349-13.155,8.94-18.315c4.956-9.866,9.236-18.387,14.588-32.637l0.648-1.726l0.624,1.734
				c5.106,14.197,9.437,22.69,14.452,32.525c2.645,5.186,5.642,11.064,9.076,18.42l0,0c4.678,10.018,4.164,20.783-1.409,29.538
				C48.117,93.553,39.61,98.332,30.458,98.332z"/>
		</g>
	</g>
</g>
</svg>
