<?xml version="1.0" encoding="utf-8"?>
<!-- Generator: Adobe Illustrator 16.0.0, SVG Export Plug-In . SVG Version: 6.00 Build 0)  -->
<!DOCTYPE svg PUBLIC "-//W3C//DTD SVG 1.1//EN" "http://www.w3.org/Graphics/SVG/1.1/DTD/svg11.dtd">
<svg version="1.1" id="Layer_1" xmlns="http://www.w3.org/2000/svg" xmlns:xlink="http://www.w3.org/1999/xlink" x="0px" y="0px"
	 width="84.365px" height="146.582px" viewBox="0 0 84.365 146.582" enable-background="new 0 0 84.365 146.582"
	 xml:space="preserve">
<g id="CONTENT">
	<g>
		<g>
			<path fill="none" d="M42.182,146.582c-14.124,0-27.25-7.375-35.114-19.727c-8.598-13.508-9.389-30.119-2.169-45.573
				c5.263-11.274,9.796-20.298,13.795-28.26c7.647-15.223,14.251-28.371,22.509-50.359l1-2.663l0.962,2.676
				c7.879,21.905,14.561,35.011,22.299,50.186c4.08,8.001,8.704,17.071,14.004,28.421l0,0c7.217,15.457,6.426,32.068-2.175,45.576
				C69.43,139.208,56.304,146.582,42.182,146.582z"/>
		</g>
	</g>
</g>
</svg>
