<?xml version="1.0" encoding="utf-8"?>
<!-- Generator: Adobe Illustrator 19.2.1, SVG Export Plug-In . SVG Version: 6.00 Build 0)  -->
<svg version="1.1" id="Layer_1" xmlns="http://www.w3.org/2000/svg" xmlns:xlink="http://www.w3.org/1999/xlink" x="0px" y="0px"
	 width="358px" height="180px" viewBox="0 0 358 180" enable-background="new 0 0 358 180" xml:space="preserve">
<symbol  id="CONTENT_TOP" viewBox="-16383 -16383 32766 32766">
	<rect x="-16383" y="-16383" display="none" fill="none" width="32766" height="32766"/>
</symbol>
<g id="BROWSER_CHROME_STENCIL">
</g>
<g>
	<g>
		<path fill="#434F54" d="M240.528,78.483l-7.951,17.007h-2.264l7.697-16.384h-9.819v-1.981h12.338V78.483z"/>
	</g>
	<g>
		<path fill="#434F54" d="M250.008,85.642c3.226,0.538,5.207,2.291,5.207,4.981c0,2.461-1.754,5.178-6.65,5.178
			c-2.518,0-4.754-1.159-5.32-1.698l1.217-1.84c1.047,0.878,2.66,1.613,4.358,1.613c2.066,0,4.075-1.131,4.075-3.226
			c0-2.631-2.915-3.735-6.593-3.934v-1.526c2.886-0.227,5.744-1.528,5.744-3.793c0-1.64-1.415-2.575-3.198-2.575
			c-1.641,0-2.943,0.678-3.792,1.358l-0.962-1.613c0,0,2.066-1.698,5.206-1.698c2.943,0,5.066,1.811,5.066,4.189
			C254.367,83.435,252.555,85.02,250.008,85.642z"/>
	</g>
	<g>
		<path fill="#434F54" d="M268.148,81.341c0,2.151-1.33,4.443-4.499,4.443c-3.027,0-4.443-1.585-4.443-4.443
			c0-2.434,1.444-4.471,4.471-4.471C266.762,76.87,268.148,78.626,268.148,81.341z M266.195,81.341c0-1.386-0.481-2.915-2.518-2.915
			c-2.122,0-2.575,1.444-2.575,2.915c0,1.669,0.481,2.858,2.575,2.858C265.714,84.201,266.195,83.011,266.195,81.341z
			 M262.715,94.047l-1.217-0.849l11.913-14.573l1.16,0.935L262.715,94.047z M277.09,91.358c0,2.18-1.33,4.471-4.499,4.471
			c-3.027,0-4.443-1.585-4.443-4.471c0-2.405,1.443-4.443,4.471-4.443C275.704,86.915,277.09,88.671,277.09,91.358z M275.138,91.358
			c0-1.386-0.481-2.886-2.518-2.886c-2.122,0-2.575,1.444-2.575,2.886c0,1.698,0.481,2.887,2.575,2.887
			C274.656,94.246,275.138,93.056,275.138,91.358z"/>
	</g>
</g>
<g>
	<g id="Covers">
		<g id="CONTENT_-_OPEN">
			
				<use xlink:href="#CONTENT_TOP"  width="32766" height="32766" id="XMLID_4_" x="-16383" y="-16383" transform="matrix(1 0 0 1 3391.0623 -5015)" overflow="visible"/>
			<g id="CONTENT_TOP_4_">
			</g>
			<g id="NUMB_-_LIGHT_1_">
			</g>
			<g id="CODE_-_LIGHT_1_">
			</g>
			<g id="New_Symbol_19">
			</g>
			<g id="New_Symbol_19_1_">
			</g>
		</g>
		<g id="SKETCHBOOK">
			<g id="SIDEBAR_-_OPEN">
				<g id="ARROW-GREY_4_">
					<g id="ARROW_5_">
					</g>
				</g>
				<g id="ARROW-GREY_5_">
					<g id="ARROW_6_">
					</g>
				</g>
				<g id="ARROW-GREY_2_">
					<g id="ARROW_2_">
					</g>
				</g>
				<g id="CLOSE_3_">
				</g>
			</g>
			<g id="CLOSE_6_">
			</g>
			<g id="IMPORT_1_">
			</g>
			<g id="FOLDER_4_">
			</g>
		</g>
		<g id="EXAMPLES">
			<g id="SIDEBAR_-_OPEN_1_">
				<g id="CLOSE2">
					<g id="CLOSE_1_">
					</g>
				</g>
			</g>
		</g>
		<g id="LIBRARIES">
			<g id="SIDEBAR_-_OPEN_4_">
				<g id="CLOSE2_copia">
					<g id="CLOSE_copia">
					</g>
				</g>
				<g id="LIBRARY">
					<g id="LIBRARY_1_">
					</g>
				</g>
				<g id="FOLDER" display="none">
					<g id="FOLDER_1_" display="inline">
					</g>
				</g>
				<g id="Livello_71">
				</g>
				<g id="_x2B_LIBRARY">
				</g>
			</g>
			<g id="New_Symbol_14">
				<g id="ARROW-GREY_1_">
					<g id="ARROW_1_">
					</g>
				</g>
				<g id="New_Symbol_14_1_">
				</g>
			</g>
		</g>
		<g id="LIBRARIES_02">
			<g id="SIDEBAR_-_OPEN_copy">
				<g id="CLOSE2_copia_copy">
					<g id="CLOSE_copia_copy">
					</g>
				</g>
				<g id="LIBRARY_copy_1_">
					<g id="LIBRARY_copy_2_">
					</g>
				</g>
				<g id="FOLDER_copy" display="none">
					<g id="FOLDER_copy_1_" display="inline">
					</g>
				</g>
				<g id="Livello_71_copy">
				</g>
				<g id="_x2B_LIBRARY_copy">
				</g>
			</g>
			<g id="New_Symbol_14_copy">
				<g id="ARROW-GREY_copy">
					<g id="ARROW_copy">
					</g>
				</g>
				<g id="New_Symbol_14_copy_1_">
				</g>
			</g>
		</g>
		<g id="SERIAL_MONITOR">
			<g id="SIDEBAR_-_OPEN_3_">
				<g id="CLOSE2_copia_2">
					<g id="CLOSE_copia_2">
					</g>
				</g>
				<g id="LIBRARY_copia">
				</g>
				<g id="FOLDER_copia">
					<g id="FOLDER_copia_1_">
					</g>
				</g>
				<g id="CONTENT_TOP_1_">
				</g>
				<g id="SERIAL">
				</g>
			</g>
		</g>
		<g id="TERMINAL">
		</g>
		<g id="REFERENCE">
			<g id="SIDEBAR_-_OPEN_2_">
				<g id="CLOSE2_copia_3">
					<g id="CLOSE_copia_3">
					</g>
				</g>
			</g>
		</g>
		<g id="REFERENCE_02">
			<g id="SIDEBAR_-_OPEN_5_">
				<g id="CLOSE2_copia_4">
					<g id="CLOSE_copia_4">
					</g>
				</g>
			</g>
		</g>
		<g id="HELP">
			<g id="SIDEBAR_-_OPEN_copia">
				<g id="CLOSE2_copia_5">
					<g id="CLOSE_copia_5">
					</g>
				</g>
				<g id="ARROW-GREY_3_">
					<g id="ARROW_4_">
					</g>
				</g>
			</g>
			<g id="ARROW-GREY">
				<g id="ARROW">
				</g>
			</g>
			<g id="HELP_1_">
			</g>
			<g id="HELP_2_">
				<g id="CONTENT_TOP_2_">
				</g>
			</g>
			<g id="New_Symbol_16">
			</g>
		</g>
		<g id="shortcuts">
		</g>
		<g id="PREFERENCES">
			<g id="SIDEBAR_-_OPEN_copia_2">
				<g id="CLOSE2_copia_6">
					<g id="CLOSE_copia_6">
					</g>
				</g>
			</g>
			<g id="ARROW-GREY_copia">
				<g id="ARROW_copia">
				</g>
			</g>
			<g id="HELP_copia_2_">
			</g>
			<g id="HELP_copia_1_">
				<g id="CONTENT_TOP_copia">
				</g>
			</g>
			<g id="PREF2">
			</g>
			<g id="CONTENT_TOP_5_">
			</g>
		</g>
	</g>
</g>
<g id="CONTENT">
	<g>
		<g>
			<path fill="#7FCBCD" d="M177.552,162.582c-14.124,0-27.25-7.375-35.114-19.727c-8.598-13.507-9.389-30.119-2.169-45.573
				c5.263-11.274,9.796-20.298,13.795-28.26c7.647-15.223,14.251-28.371,22.509-50.359l1-2.663l0.962,2.676
				c7.879,21.905,14.561,35.011,22.299,50.186c4.08,8.001,8.704,17.071,14.004,28.421l0,0c7.217,15.457,6.425,32.069-2.175,45.576
				C204.8,155.208,191.674,162.582,177.552,162.582z M177.532,22.036c-7.836,20.525-14.236,33.266-21.6,47.924
				c-3.992,7.949-8.518,16.959-13.769,28.205c-6.912,14.794-6.169,30.674,2.038,43.566c7.478,11.746,19.945,18.759,33.35,18.759
				c13.404,0,25.87-7.011,33.348-18.756c8.208-12.893,8.953-28.772,2.044-43.569c-5.284-11.315-9.9-20.367-13.973-28.355
				C191.519,55.194,185.041,42.49,177.532,22.036z"/>
		</g>
	</g>
</g>
<g>
	<path id="SVGID_278_" fill="#00979D" d="M204.871,79.133c0,0,5.755,11.597,9.021,18.592c14.864,31.83-7.163,63.813-36.338,63.813
		s-51.206-31.985-36.336-63.813c3.269-7.003,8.972-18.616,8.972-18.616L204.871,79.133z"/>
</g>
</svg>
