<?xml version="1.0" encoding="UTF-8"?>
<svg width="18px" height="18px" viewBox="0 0 18 18" version="1.1" xmlns="http://www.w3.org/2000/svg" xmlns:xlink="http://www.w3.org/1999/xlink">
    <!-- Generator: Sketch 48.1 (47250) - http://www.bohemiancoding.com/sketch -->
    <title>Group 10</title>
    <desc>Created with Sketch.</desc>
    <defs></defs>
    <g id="Symbols" stroke="none" stroke-width="1" fill="none" fill-rule="evenodd">
        <g id="Group-10" fill="#00979D">
            <path d="M4,3.158 C4,3.623 3.623,4 3.158,4 L0.842,4 C0.377,4 0,3.623 0,3.158 L0,0.842 C0,0.377 0.377,0 0.842,0 L3.158,0 C3.623,0 4,0.377 4,0.842 L4,3.158 Z" id="Path"></path>
            <path d="M18,3.158 C18,3.623 17.623,4 17.158,4 L14.842,4 C14.377,4 14,3.623 14,3.158 L14,0.842 C14,0.377 14.377,0 14.842,0 L17.158,0 C17.623,0 18,0.377 18,0.842 L18,3.158 Z" id="Path"></path>
            <path d="M11,3.158 C11,3.623 10.623,4 10.158,4 L7.842,4 C7.377,4 7,3.623 7,3.158 L7,0.842 C7,0.377 7.377,0 7.842,0 L10.158,0 C10.623,0 11,0.377 11,0.842 L11,3.158 Z" id="Path"></path>
            <path d="M4,17.158 C4,17.623 3.623,18 3.158,18 L0.842,18 C0.377,18 0,17.623 0,17.158 L0,14.842 C0,14.377 0.377,14 0.842,14 L3.158,14 C3.623,14 4,14.377 4,14.842 L4,17.158 Z" id="Path"></path>
            <path d="M18,17.158 C18,17.623 17.623,18 17.158,18 L14.842,18 C14.377,18 14,17.623 14,17.158 L14,14.842 C14,14.377 14.377,14 14.842,14 L17.158,14 C17.623,14 18,14.377 18,14.842 L18,17.158 Z" id="Path"></path>
            <path d="M11,17.158 C11,17.623 10.623,18 10.158,18 L7.842,18 C7.377,18 7,17.623 7,17.158 L7,14.842 C7,14.377 7.377,14 7.842,14 L10.158,14 C10.623,14 11,14.377 11,14.842 L11,17.158 Z" id="Path"></path>
            <path d="M4,10.158 C4,10.623 3.623,11 3.158,11 L0.842,11 C0.377,11 0,10.623 0,10.158 L0,7.842 C0,7.377 0.377,7 0.842,7 L3.158,7 C3.623,7 4,7.377 4,7.842 L4,10.158 Z" id="Path"></path>
            <path d="M18,10.158 C18,10.623 17.623,11 17.158,11 L14.842,11 C14.377,11 14,10.623 14,10.158 L14,7.842 C14,7.377 14.377,7 14.842,7 L17.158,7 C17.623,7 18,7.377 18,7.842 L18,10.158 Z" id="Path"></path>
            <path d="M11,10.158 C11,10.623 10.623,11 10.158,11 L7.842,11 C7.377,11 7,10.623 7,10.158 L7,7.842 C7,7.377 7.377,7 7.842,7 L10.158,7 C10.623,7 11,7.377 11,7.842 L11,10.158 Z" id="Path"></path>
        </g>
    </g>
</svg>